<svg width="708" height="654" viewBox="0 0 708 654" fill="none" xmlns="http://www.w3.org/2000/svg">
<path d="M407.904 443.481C407.904 443.481 313.482 429.368 280.434 407.022C247.386 384.676 1.88844 374.092 1.88844 443.481C1.88844 512.87 284.211 543.448 284.211 543.448L432.454 532.863L407.904 443.481Z" fill="#FBBEBE"/>
<path opacity="0.1" d="M407.904 443.481C407.904 443.481 313.482 429.368 280.434 407.022C247.386 384.676 1.88844 374.092 1.88844 443.481C1.88844 512.87 284.211 543.448 284.211 543.448L432.454 532.863L407.904 443.481Z" fill="black"/>
<path d="M380.522 430.544L400.351 502.285L711 506.989V401.142C711 401.142 592.028 367.035 497.606 439.952C497.606 439.952 386.187 423.487 380.522 430.544Z" fill="#008000"/>
<path opacity="0.1" d="M380.522 430.428L400.351 502.169L711 506.874V401.026C711 401.026 592.028 366.92 497.606 439.837C497.606 439.837 386.187 423.372 380.522 430.428Z" fill="black"/>
<path d="M25.3551 400.554C25.3551 404.562 32.5718 407.538 33.2814 411.404C33.9851 415.24 29.6975 421.071 31.0542 424.734C32.4567 428.479 34.1136 432.068 36.0068 435.462C37.7842 438.632 43.2748 438.169 45.526 441.142C47.7302 443.841 50.0651 446.37 52.5176 448.714C54.9065 451.189 58.1429 451.708 60.8593 453.986C63.4422 456.152 63.1296 464.097 65.9868 466.07C68.7169 467.954 72.896 466.438 75.8576 468.132C78.7001 469.758 80.1993 475.64 83.2383 477.078C86.1691 478.465 89.7966 477.868 92.8951 479.069C95.894 480.232 99.2493 480.043 102.392 481.022C105.443 481.973 107.774 487.67 110.948 488.438C114.041 489.187 117.665 487.191 120.863 487.757C123.986 488.311 127.618 483.388 130.831 483.76C133.975 484.125 136.938 486.404 140.159 486.588C143.316 486.769 146.438 488.501 149.659 488.501C152.88 488.501 156.204 492.265 159.361 492.084C162.581 491.9 165.496 486.196 168.641 485.831C171.854 485.458 175.686 491.417 178.809 490.863C182.007 490.296 184.54 484.464 187.633 483.715C190.808 482.947 194.909 487.116 197.961 486.165C201.104 485.186 202.969 478.401 205.968 477.238C209.067 476.036 212.907 477.664 215.838 476.277C218.878 474.838 222.58 475.069 225.423 473.443C228.385 471.749 230.51 467.74 233.241 465.855C236.098 463.882 237.415 458.991 239.998 456.824C242.715 454.546 246.854 454.837 249.243 452.362C251.765 449.749 256.49 449.613 258.619 446.802C260.87 443.829 261.781 438.837 263.558 435.667C265.43 432.328 261.756 425.269 263.063 421.74C264.419 418.078 270.089 416.59 270.793 412.755C271.519 408.751 271.891 404.659 271.904 400.554C271.904 396.545 267.054 393.482 266.345 389.615C265.641 385.78 269.21 380.272 267.854 376.609C266.546 373.08 266.713 367.655 264.841 364.315C263.063 361.145 258.628 359.903 256.376 356.93C254.248 354.119 250.438 353.335 247.916 350.723C245.527 348.248 245.832 340.786 243.115 338.508C240.532 336.342 236.926 335.354 234.069 333.381C231.339 331.497 227.475 331.814 224.514 330.12C221.671 328.494 217.219 331.698 214.18 330.26C211.249 328.873 208.872 325.841 205.773 324.64C202.775 323.477 201.365 314.61 198.223 313.631C195.172 312.68 191.417 314.258 188.243 313.49C185.15 312.741 180.988 319.738 177.79 319.171C174.667 318.617 172.332 309.278 169.119 308.905C165.975 308.54 162.429 313.378 159.209 313.193C156.051 313.013 152.881 315.847 149.659 315.847C146.439 315.847 143.23 311.957 140.073 312.138C136.853 312.322 134.013 317.462 130.869 317.827C127.656 318.2 123.712 310.381 120.588 310.934C117.391 311.501 114.92 317.545 111.827 318.294C108.652 319.062 104.675 315.309 101.623 316.26C98.4798 317.239 96.589 323.664 93.5898 324.827C90.4914 326.028 88.5824 330.56 85.6516 331.947C82.6121 333.386 76.9662 326.655 74.1232 328.282C71.1616 329.976 68.6037 332.908 65.8736 334.793C63.0164 336.765 58.4744 335.773 55.8916 337.939C53.1749 340.218 52.507 346.333 50.118 348.808C47.5958 351.421 43.4355 352.207 41.307 355.018C39.0558 357.992 38.7431 363.319 36.9658 366.489C35.094 369.828 35.1524 374.454 33.8456 377.983C32.4895 381.645 28.8688 384.415 28.1653 388.249C27.4562 392.115 25.3551 396.546 25.3551 400.554Z" fill="#3F3D56"/>
<path d="M365.414 474.059C365.414 474.059 258.717 405.846 189.789 431.72C120.861 457.594 24.5498 412.903 13.2191 428.192C1.88845 443.481 -14.1634 608.133 121.805 617.541C257.773 626.95 373.912 589.315 373.912 589.315L365.414 474.059Z" fill="#FBBEBE"/>
<path d="M390.541 466.794C390.541 466.794 348.418 463.474 350.307 482.292C352.195 501.109 354.084 646.944 365.414 650.472C376.745 654 466.446 654 503.271 654H711V428.53C711 428.53 563.701 417.607 490.052 463.474C490.052 463.474 401.505 461.882 390.541 466.794Z" fill="#008000"/>
<path d="M193.206 114.127C197.231 114.41 201.113 116.084 204.417 118.961C207.721 121.839 210.316 125.805 211.911 130.417C216.589 144.499 210.566 161.041 201.526 171.309C192.485 181.578 180.872 187.448 170.321 195.163C156.148 205.526 143.413 219.911 136.322 238.377C129.231 256.843 128.477 279.717 136.812 297.358C144.549 313.732 158.617 323.531 172.034 332.569" stroke="#3F3D56" stroke-miterlimit="10"/>
<path d="M155.437 28.2725C159.462 28.5556 163.344 30.2297 166.648 33.107C169.952 35.9843 172.547 39.951 174.142 44.5624C178.82 58.6446 172.797 75.1863 163.757 85.4552C154.716 95.7241 143.103 101.594 132.552 109.309C118.38 119.672 105.645 134.057 98.5534 152.523C91.4622 170.989 90.7079 193.862 99.0433 211.503C106.78 227.877 120.848 237.677 134.265 246.715" stroke="#3F3D56" stroke-miterlimit="10"/>
<path d="M31.2563 48.0184C34.5781 45.1733 38.4705 43.537 42.497 43.293C46.5236 43.0489 50.5251 44.2067 54.053 46.6367C64.6726 54.2054 68.0407 71.8772 65.9392 86.8905C63.8377 101.904 57.5399 115.4 52.9886 129.546C46.8754 148.547 43.8757 169.632 47.3442 189.64C50.8127 209.648 61.4585 228.31 76.7198 235.904C90.885 242.952 106.825 239.974 121.876 236.89" stroke="#3F3D56" stroke-miterlimit="10"/>
<path d="M140.689 225.502C128.174 225.502 118.028 219.364 118.028 211.792C118.028 204.22 128.174 198.082 140.689 198.082C153.205 198.082 163.351 204.22 163.351 211.792C163.351 219.364 153.205 225.502 140.689 225.502Z" fill="#02FF02"/>
<path d="M143.522 223.15C131.006 223.15 120.861 217.011 120.861 209.44C120.861 201.868 131.006 195.73 143.522 195.73C156.037 195.73 166.183 201.868 166.183 209.44C166.183 217.011 156.037 223.15 143.522 223.15Z" stroke="#3F3D56" stroke-miterlimit="10"/>
<path d="M91.5896 213.741C79.0741 213.741 68.9282 207.603 68.9282 200.031C68.9282 192.459 79.0741 186.321 91.5896 186.321C104.105 186.321 114.251 192.459 114.251 200.031C114.251 207.603 104.105 213.741 91.5896 213.741Z" fill="#02FF02"/>
<path d="M94.4223 211.389C81.9068 211.389 71.761 205.251 71.761 197.679C71.761 190.107 81.9068 183.969 94.4223 183.969C106.938 183.969 117.084 190.107 117.084 197.679C117.084 205.251 106.938 211.389 94.4223 211.389Z" stroke="#3F3D56" stroke-miterlimit="10"/>
<path d="M84.0359 265.489C71.5203 265.489 61.3745 259.351 61.3745 251.779C61.3745 244.207 71.5203 238.069 84.0359 238.069C96.5514 238.069 106.697 244.207 106.697 251.779C106.697 259.351 96.5514 265.489 84.0359 265.489Z" fill="#02FF02"/>
<path d="M86.8686 263.136C74.353 263.136 64.2072 256.998 64.2072 249.427C64.2072 241.855 74.353 235.717 86.8686 235.717C99.3841 235.717 109.53 241.855 109.53 249.427C109.53 256.998 99.3841 263.136 86.8686 263.136Z" stroke="#3F3D56" stroke-miterlimit="10"/>
<path d="M88.7569 136.119C76.2414 136.119 66.0956 129.981 66.0956 122.409C66.0956 114.838 76.2414 108.7 88.7569 108.7C101.272 108.7 111.418 114.838 111.418 122.409C111.418 129.981 101.272 136.119 88.7569 136.119Z" fill="#02FF02"/>
<path d="M91.5896 133.767C79.0741 133.767 68.9282 127.629 68.9282 120.057C68.9282 112.486 79.0741 106.347 91.5896 106.347C104.105 106.347 114.251 112.486 114.251 120.057C114.251 127.629 104.105 133.767 91.5896 133.767Z" stroke="#3F3D56" stroke-miterlimit="10"/>
<path d="M145.41 127.887C132.895 127.887 122.749 121.749 122.749 114.177C122.749 106.605 132.895 100.467 145.41 100.467C157.926 100.467 168.072 106.605 168.072 114.177C168.072 121.749 157.926 127.887 145.41 127.887Z" fill="#02FF02"/>
<path d="M148.243 125.534C135.727 125.534 125.582 119.396 125.582 111.825C125.582 104.253 135.727 98.1148 148.243 98.1148C160.759 98.1148 170.904 104.253 170.904 111.825C170.904 119.396 160.759 125.534 148.243 125.534Z" stroke="#3F3D56" stroke-miterlimit="10"/>
<path d="M119.916 98.4845C107.401 98.4845 97.255 92.3464 97.255 84.7747C97.255 77.203 107.401 71.0649 119.916 71.0649C132.432 71.0649 142.578 77.203 142.578 84.7747C142.578 92.3464 132.432 98.4845 119.916 98.4845Z" fill="#02FF02"/>
<path d="M122.749 96.1323C110.233 96.1323 100.088 89.9942 100.088 82.4225C100.088 74.8508 110.233 68.7127 122.749 68.7127C135.264 68.7127 145.41 74.8508 145.41 82.4225C145.41 89.9942 135.264 96.1323 122.749 96.1323Z" stroke="#3F3D56" stroke-miterlimit="10"/>
<path d="M64.2072 104.365C51.6916 104.365 41.5458 98.2268 41.5458 90.6551C41.5458 83.0834 51.6916 76.9453 64.2072 76.9453C76.7227 76.9453 86.8685 83.0834 86.8685 90.6551C86.8685 98.2268 76.7227 104.365 64.2072 104.365Z" fill="#02FF02"/>
<path d="M67.0398 102.013C54.5243 102.013 44.3784 95.8747 44.3784 88.3029C44.3784 80.7312 54.5243 74.5931 67.0398 74.5931C79.5554 74.5931 89.7012 80.7312 89.7012 88.3029C89.7012 95.8747 79.5554 102.013 67.0398 102.013Z" stroke="#3F3D56" stroke-miterlimit="10"/>
<path d="M22.6613 143.176C10.1458 143.176 0 137.038 0 129.466C0 121.894 10.1458 115.756 22.6613 115.756C35.1768 115.756 45.3227 121.894 45.3227 129.466C45.3227 137.038 35.1768 143.176 22.6613 143.176Z" fill="#02FF02"/>
<path d="M25.494 140.824C12.9785 140.824 2.8327 134.685 2.8327 127.114C2.8327 119.542 12.9785 113.404 25.494 113.404C38.0095 113.404 48.1553 119.542 48.1553 127.114C48.1553 134.685 38.0095 140.824 25.494 140.824Z" stroke="#3F3D56" stroke-miterlimit="10"/>
<path d="M169.016 74.9628C156.5 74.9628 146.355 68.8247 146.355 61.253C146.355 53.6813 156.5 47.5432 169.016 47.5432C181.531 47.5432 191.677 53.6813 191.677 61.253C191.677 68.8247 181.531 74.9628 169.016 74.9628Z" fill="#02FF02"/>
<path d="M171.849 72.6106C159.333 72.6106 149.187 66.4725 149.187 58.9008C149.187 51.3291 159.333 45.191 171.849 45.191C184.364 45.191 194.51 51.3291 194.51 58.9008C194.51 66.4725 184.364 72.6106 171.849 72.6106Z" stroke="#3F3D56" stroke-miterlimit="10"/>
<path d="M154.853 30.2715C142.337 30.2715 132.191 24.1335 132.191 16.5617C132.191 8.99003 142.337 2.85194 154.853 2.85194C167.368 2.85194 177.514 8.99003 177.514 16.5617C177.514 24.1335 167.368 30.2715 154.853 30.2715Z" fill="#02FF02"/>
<path d="M157.685 27.9194C145.17 27.9194 135.024 21.7813 135.024 14.2096C135.024 6.63786 145.17 0.499771 157.685 0.499771C170.201 0.499771 180.347 6.63786 180.347 14.2096C180.347 21.7813 170.201 27.9194 157.685 27.9194Z" stroke="#3F3D56" stroke-miterlimit="10"/>
<path d="M23.6056 63.2019C11.09 63.2019 0.944214 57.0638 0.944214 49.4921C0.944214 41.9204 11.09 35.7823 23.6056 35.7823C36.1211 35.7823 46.267 41.9204 46.267 49.4921C46.267 57.0638 36.1211 63.2019 23.6056 63.2019Z" fill="#02FF02"/>
<path d="M26.4383 60.8498C13.9227 60.8498 3.77686 54.7117 3.77686 47.14C3.77686 39.5682 13.9227 33.4302 26.4383 33.4302C38.9538 33.4302 49.0996 39.5682 49.0996 47.14C49.0996 54.7117 38.9538 60.8498 26.4383 60.8498Z" stroke="#3F3D56" stroke-miterlimit="10"/>
<path d="M232.279 171.402C219.763 171.402 209.618 165.264 209.618 157.692C209.618 150.12 219.763 143.982 232.279 143.982C244.794 143.982 254.94 150.12 254.94 157.692C254.94 165.264 244.794 171.402 232.279 171.402Z" fill="#02FF02"/>
<path d="M235.112 169.05C222.596 169.05 212.45 162.912 212.45 155.34C212.45 147.768 222.596 141.63 235.112 141.63C247.627 141.63 257.773 147.768 257.773 155.34C257.773 162.912 247.627 169.05 235.112 169.05Z" stroke="#3F3D56" stroke-miterlimit="10"/>
<path d="M153.908 164.345C141.393 164.345 131.247 158.207 131.247 150.635C131.247 143.064 141.393 136.926 153.908 136.926C166.424 136.926 176.57 143.064 176.57 150.635C176.57 158.207 166.424 164.345 153.908 164.345Z" fill="#02FF02"/>
<path d="M156.741 161.993C144.226 161.993 134.08 155.855 134.08 148.283C134.08 140.712 144.226 134.574 156.741 134.574C169.257 134.574 179.402 140.712 179.402 148.283C179.402 155.855 169.257 161.993 156.741 161.993Z" stroke="#3F3D56" stroke-miterlimit="10"/>
<path d="M50.988 174.93C38.4725 174.93 28.3267 168.792 28.3267 161.22C28.3267 153.649 38.4725 147.51 50.988 147.51C63.5035 147.51 73.6494 153.649 73.6494 161.22C73.6494 168.792 63.5035 174.93 50.988 174.93Z" fill="#02FF02"/>
<path d="M53.8207 172.578C41.3052 172.578 31.1593 166.44 31.1593 158.868C31.1593 151.296 41.3052 145.158 53.8207 145.158C66.3362 145.158 76.4821 151.296 76.4821 158.868C76.4821 166.44 66.3362 172.578 53.8207 172.578Z" stroke="#3F3D56" stroke-miterlimit="10"/>
<path d="M105.753 179.634C93.2375 179.634 83.0917 173.496 83.0917 165.925C83.0917 158.353 93.2375 152.215 105.753 152.215C118.269 152.215 128.414 158.353 128.414 165.925C128.414 173.496 118.269 179.634 105.753 179.634Z" fill="#02FF02"/>
<path d="M108.586 177.282C96.0701 177.282 85.9243 171.144 85.9243 163.572C85.9243 156.001 96.0701 149.863 108.586 149.863C121.101 149.863 131.247 156.001 131.247 163.572C131.247 171.144 121.101 177.282 108.586 177.282Z" stroke="#3F3D56" stroke-miterlimit="10"/>
<path d="M101.976 62.0258C89.4606 62.0258 79.3148 55.8877 79.3148 48.316C79.3148 40.7443 89.4606 34.6062 101.976 34.6062C114.492 34.6062 124.637 40.7443 124.637 48.316C124.637 55.8877 114.492 62.0258 101.976 62.0258Z" fill="#02FF02"/>
<path d="M104.809 59.6737C92.2933 59.6737 82.1474 53.5356 82.1474 45.9639C82.1474 38.3922 92.2933 32.2541 104.809 32.2541C117.324 32.2541 127.47 38.3922 127.47 45.9639C127.47 53.5356 117.324 59.6737 104.809 59.6737Z" stroke="#3F3D56" stroke-miterlimit="10"/>
<path d="M199.231 134.943C186.716 134.943 176.57 128.805 176.57 121.233C176.57 113.662 186.716 107.524 199.231 107.524C211.747 107.524 221.892 113.662 221.892 121.233C221.892 128.805 211.747 134.943 199.231 134.943Z" fill="#02FF02"/>
<path d="M202.064 132.591C189.548 132.591 179.402 126.453 179.402 118.881C179.402 111.309 189.548 105.171 202.064 105.171C214.579 105.171 224.725 111.309 224.725 118.881C224.725 126.453 214.579 132.591 202.064 132.591Z" stroke="#3F3D56" stroke-miterlimit="10"/>
<path d="M186.012 187.867C173.496 187.867 163.351 181.729 163.351 174.157C163.351 166.585 173.496 160.447 186.012 160.447C198.527 160.447 208.673 166.585 208.673 174.157C208.673 181.729 198.527 187.867 186.012 187.867Z" fill="#02FF02"/>
<path d="M188.845 185.515C176.329 185.515 166.183 179.377 166.183 171.805C166.183 164.233 176.329 158.095 188.845 158.095C201.36 158.095 211.506 164.233 211.506 171.805C211.506 179.377 201.36 185.515 188.845 185.515Z" stroke="#3F3D56" stroke-miterlimit="10"/>
<g opacity="0.3">
<path opacity="0.3" d="M185.485 267.768C182.286 260.639 181.702 253.461 184.181 251.736C186.659 250.01 191.262 254.391 194.461 261.52C197.66 268.648 198.243 275.826 195.765 277.552C193.286 279.277 188.684 274.897 185.485 267.768Z" fill="#02FF02"/>
<path opacity="0.3" d="M186.979 268.845C183.78 261.717 183.196 254.539 185.675 252.813C188.153 251.088 192.756 255.468 195.955 262.597C199.154 269.726 199.737 276.904 197.259 278.629C194.78 280.355 190.178 275.974 186.979 268.845Z" stroke="#3F3D56" stroke-miterlimit="10"/>
</g>
<g opacity="0.3">
<path opacity="0.3" d="M67.3636 301.944C65.47 299.308 67.8956 292.757 72.7814 287.31C77.6672 281.864 83.163 279.585 85.0566 282.22C86.9503 284.856 84.5246 291.407 79.6389 296.854C74.7531 302.3 69.2573 304.579 67.3636 301.944Z" fill="#02FF02"/>
<path opacity="0.3" d="M67.8812 299.892C65.9875 297.257 68.4131 290.705 73.2989 285.259C78.1847 279.812 83.6805 277.534 85.5742 280.169C87.4678 282.804 85.0422 289.356 80.1564 294.803C75.2706 300.249 69.7748 302.528 67.8812 299.892Z" stroke="#3F3D56" stroke-miterlimit="10"/>
</g>
<g opacity="0.3">
<path opacity="0.3" d="M173.117 227.85C171.223 225.215 173.649 218.663 178.534 213.217C183.42 207.77 188.916 205.492 190.81 208.127C192.703 210.762 190.278 217.314 185.392 222.761C180.506 228.207 175.01 230.486 173.117 227.85Z" fill="#02FF02"/>
<path opacity="0.3" d="M173.634 225.799C171.74 223.163 174.166 216.612 179.052 211.165C183.938 205.719 189.433 203.44 191.327 206.076C193.221 208.711 190.795 215.263 185.909 220.709C181.024 226.156 175.528 228.434 173.634 225.799Z" stroke="#3F3D56" stroke-miterlimit="10"/>
</g>
</svg>
