<svg xmlns="http://www.w3.org/2000/svg" width="512" height="512" xmlns:v="https://vecta.io/nano"><path fill="#ca2128" d="M7.9 255.7C7.9 118.8 119 7.9 256 7.9s248.1 110.9 248.1 247.7S393 503.3 256 503.3C119 503.4 7.9 392.5 7.9 255.7z"/><path fill="#ba202d" d="M431.4 81.2c96.9 96.8 96.9 253.6 0 350.4-96.9 96.7-254 96.8-350.8 0L431.4 81.2z"/><path fill="#a91e30" d="M499.7 301.7L354.4 156.5 333.9 177l-113-46.3-96.6 96.5 51 108.3-21.8 21.8 143 142.8c102.6-16.8 184.1-96.6 203.2-198.4z"/><path fill="#fff" d="M255.6 115.8c-78.4 0-141.9 63.4-141.9 141.7 0 58 34.9 107.9 84.9 129.8-.4-9.9-.1-21.8 2.5-32.5l18.3-77.2s-4.5-9-4.5-22.4c0-21 12.2-36.7 27.4-36.7 12.9 0 19.1 9.7 19.1 21.3 0 13-8.3 32.3-12.5 50.3-3.6 15 7.5 27.3 22.4 27.3 26.9 0 45-34.5 45-75.3 0-31-20.9-54.3-59-54.3-43 0-69.8 32-69.8 67.8 0 12.4 3.6 21.1 9.4 27.8 2.6 3.1 3 4.3 2 7.9l-2.9 11.4c-1 3.6-3.9 4.9-7.1 3.5-19.8-8.1-29.1-29.8-29.1-54.1 0-40.2 34-88.5 101.4-88.5 54.2 0 89.8 39.2 89.8 81.2 0 55.6-31 97.1-76.6 97.1-15.3 0-29.7-8.3-34.7-17.6l-10 38.9c-3 10.9-8.9 21.8-14.3 30.4 12.7 3.8 26.2 5.8 40.2 5.8 78.3 0 141.9-63.4 141.9-141.7 0-78.5-63.5-141.9-141.9-141.9z"/></svg>